<mxfile host="app.diagrams.net" modified="2023-03-28T15:59:50.688Z" agent="5.0 (Macintosh; Intel Mac OS X 10_15_7) AppleWebKit/537.36 (KHTML, like Gecko) Chrome/111.0.0.0 Safari/537.36" version="20.6.0" etag="Mg-u7t4ZSV4aCyxCuTw6" type="github">
  <diagram id="wzhwCYe-Zv6LTYfumYh5" name="Page-1">
    <mxGraphModel dx="1538" dy="866" grid="1" gridSize="10" guides="1" tooltips="1" connect="1" arrows="1" fold="1" page="1" pageScale="1" pageWidth="1100" pageHeight="850" math="0" shadow="0">
      <root>
        <mxCell id="0" />
        <mxCell id="1" parent="0" />
        <mxCell id="2ZsHaBsRDiFUQ5I8SyEl-1" value="Test - Andy" style="ellipse;whiteSpace=wrap;html=1;" vertex="1" parent="1">
          <mxGeometry x="490" y="400" width="120" height="80" as="geometry" />
        </mxCell>
      </root>
    </mxGraphModel>
  </diagram>
</mxfile>
